# xmcd
#
# Track frame offsets:
#	150
#	11318
#	23777
#	35513
#	48503
#	63558
#	72383
#	83929
#	94147
#	110867
#	122462
#	134282
#
# Disc length: 1968 seconds
#
# Revision: 0
# Processed by: cddbd v1.5.1PL0 Copyright (c) Steve Scherf et al.
# Submitted via: EasyCDDAExtractor 7.1.3.1
#
DISCID=a207ae0c
DTITLE=The Blue Cats - Re-discovered masters
DYEAR=1978
DGENRE=Rockabilly
TTITLE0=I don't care if the sun don't shine
TTITLE1=Jumps, giggles and shouts
TTITLE2=Mystery train
TTITLE3=I'll never let you go
TTITLE4=Saint's rock and Roll
TTITLE5=Gotta git-a goin
TTITLE6=Baby's number nine
TTITLE7=I've got no time for you
TTITLE8=Gotta go
TTITLE9=Left out
TTITLE10=El-Dorado
TTITLE11=The masters call
EXTD=
EXTT0=
EXTT1=
EXTT2=
EXTT3=
EXTT4=
EXTT5=
EXTT6=
EXTT7=
EXTT8=
EXTT9=
EXTT10=
EXTT11=
PLAYORDER=
